<svg xmlns="http://www.w3.org/2000/svg" width="49.848" height="47.644"><path d="M20.696 23.596q2.698 0 4.95-1.447 2.254-1.448 3.608-3.912 1.355-2.465 1.355-5.532 0-2.98-1.358-5.395-1.36-2.416-3.612-3.826-2.253-1.41-4.943-1.41-2.682 0-4.935 1.427-2.252 1.427-3.615 3.85-1.363 2.424-1.355 5.394 0 3.043 1.359 5.5 1.359 2.456 3.608 3.904 2.248 1.447 4.938 1.447zM4.547 46.39H36.23q-.393-.887-.393-1.88v-8.762q-2.307-1.832-3.167-4.673-2.366-1.428-5.386-2.3-3.02-.87-6.587-.87-4.753 0-8.572 1.412Q8.304 30.73 5.6 32.99q-2.705 2.26-4.152 4.853Q0 40.434 0 42.77q0 1.693 1.208 2.656 1.208.964 3.34.964zm37.724-27.444q-2.123 0-3.843 1.02-1.72 1.021-2.736 2.733-1.016 1.712-1.016 3.801 0 2.345 1.255 4.236 1.255 1.892 3.357 2.785V44.51q0 .513.427.942l2.007 1.962q.241.218.574.23.333.012.614-.26l3.593-3.61q.289-.273.277-.637-.012-.364-.292-.628l-1.97-2.016 2.842-2.774q.264-.265.26-.633-.005-.367-.293-.672l-2.698-2.706q2.499-1.105 3.859-2.983 1.36-1.877 1.36-4.224 0-2.09-1.02-3.801-1.02-1.712-2.74-2.732-1.72-1.02-3.817-1.02zm-.017 3.744q.928 0 1.595.667.668.667.668 1.595 0 .97-.668 1.641-.667.672-1.595.672-.929 0-1.608-.672-.68-.67-.68-1.64 0-.929.671-1.596.672-.667 1.617-.667z"/></svg>